<svg xmlns="http://www.w3.org/2000/svg" viewBox="0 0 4320 984"><defs><style>.a{fill:#f7931e;}.b{fill:red;}</style></defs><title>logo</title><path class="a" d="M700,910.5V243.4C549.09,125.69,380.56,72.3,227,72.3q-16.21,0-32.17.79v667.1q16-.79,32.17-.79C380.57,739.4,549.08,792.79,700,910.5Z"/><polygon class="b" points="1199.09 59.41 1199.09 59.41 1199.09 72.3 1199.09 59.41"/><path class="a" d="M726.11,243.4V910.5c150.89-117.72,319.4-171.11,473-171.1q16.19,0,32.17.79V73.09q-16-.79-32.17-.79C1045.52,72.3,877,125.69,726.11,243.4Z"/><path d="M1232.52,47.33c-11-.54-22.28-.82-33.43-.82v0a720.32,720.32,0,0,0-121.85,10.56,775.61,775.61,0,0,0-124.16,32.3c-84.91,29.72-165.65,74-240,131.54C638.66,163.34,557.92,119.09,473,89.37a775.57,775.57,0,0,0-124.16-32.3A720.2,720.2,0,0,0,227,46.51c-11.15,0-22.4.28-33.44.82L169,48.54V767.27l27.05-1.33c10.2-.5,20.59-.76,30.9-.76,157.85,0,320.19,58.83,457.11,165.65l16.22,12.66h25.42L742,930.83C878.9,824,1041.24,765.18,1199.08,765.18c10.31,0,20.71.26,30.9.76l27.05,1.33V48.54ZM700,910.5C549.08,792.79,380.57,739.4,227,739.4q-16.19,0-32.17.79V73.09q16-.79,32.17-.79c153.56,0,322.09,53.4,473,171.1Zm531.28-170.32q-16-.79-32.17-.79c-153.57,0-322.08,53.39-473,171.1V243.4C877,125.69,1045.52,72.3,1199.08,72.3q16.21,0,32.17.79Z"/><path class="a" d="M1306.61,774V67.69h312.74c61.33,0,111.82,16.27,150.08,48.37,39.26,33,59.17,76.85,59.17,130.46,0,61.52-23.34,110.41-69.38,145.31l-.24.18a222.77,222.77,0,0,1,27,16.64c48.76,35.55,73.45,85.3,73.45,147.9,0,67.86-23.85,121.87-70.89,160.55-45.9,37.73-109.71,56.87-189.65,56.87ZM1600.29,657.8c46.84,0,80.9-8.57,101.25-25.46,19.54-16.22,29-42.2,29-79.42,0-31-9.58-52.71-29.28-66.36-21.68-15-57.81-22.63-107.37-22.63h-158V657.8Zm-22.7-306c44.35,0,76.51-7.55,95.59-22.43,17.86-13.93,26.54-36.29,26.54-68.37,0-27-7.68-45.89-23.49-57.69-17.34-12.94-46.56-19.5-86.84-19.5H1435.95v168Z"/><path d="M1619.35,87.19q85.34,0,137.54,43.8t52.2,115.53q0,83.07-61.74,129.83A163.7,163.7,0,0,1,1717,395q33.13,11.81,57.65,29.51Q1840,472.13,1840,556.56q0,93.06-63.78,145.49t-177.26,52.43H1326.11V87.19h293.24M1416.45,371.35h161.15q73.54,0,107.58-26.55t34-83.75q0-49.93-31.32-73.31t-98.5-23.38H1416.45v207m0,306h183.84q77.62,0,113.71-30t36.09-94.42q0-56.28-37.68-82.39t-118.48-26.1H1416.45V677.3M1619.35,48.19H1287.11V793.47h311.82c41.4,0,79.12-4.95,112.12-14.71,34.44-10.19,64.69-25.86,89.91-46.59a206.49,206.49,0,0,0,58.78-77.05C1872.5,626,1879,592.85,1879,556.56c0-34.07-6.86-65.2-20.39-92.54-13.66-27.6-34.18-51.52-61-71.07l-.07-.05-.07-.05q-2.65-1.91-5.38-3.76a185.17,185.17,0,0,0,36.83-51.82c12.75-26.81,19.22-57.34,19.22-90.74,0-29.37-5.56-56.55-16.51-80.8-11.09-24.54-27.78-46.27-49.62-64.6C1740.1,66,1685.39,48.19,1619.35,48.19ZM1455.45,203.36h133.95c44.82,0,65.62,8.5,75.18,15.63,6.71,5,15.65,14.83,15.65,42.05,0,38.15-14.32,49.33-19,53-10.71,8.35-33.9,18.31-83.6,18.31H1455.45v-129Zm0,280.08h138.49c56.7,0,83.65,10.42,96.27,19.16,9,6.21,20.88,18.19,20.88,50.33,0,31.05-7.2,52.12-22,64.41-16.52,13.72-47.23,21-88.8,21H1455.45V483.44Z"/><path class="a" d="M2135.48,787.14c-72.72,0-132.54-26-177.82-77.42-44.65-50.65-67.29-117.46-67.29-198.55,0-81.4,22.64-148.35,67.29-199,45.27-51.37,105.1-77.42,177.82-77.42,73.33,0,133.39,26.06,178.52,77.45,44.48,50.65,67,117.6,67,199,0,81.08-22.55,147.87-67,198.53C2268.87,761.08,2208.8,787.14,2135.48,787.14Zm0-443c-36.81,0-65.19,14-86.75,42.8-22.57,30.14-34,71.95-34,124.27s11.44,94,34,124c21.56,28.67,49.95,42.61,86.78,42.61s65.32-14,87-42.65c22.68-30,34.18-71.68,34.18-124s-11.51-94.09-34.21-124.22C2200.77,358.11,2172.31,344.1,2135.48,344.1Z"/><path d="M2135.48,254.24q101.68,0,163.87,70.81t62.19,186.11q0,114.85-62.19,185.66t-163.87,70.81q-100.77,0-163.19-70.81t-62.42-185.66q0-115.3,62.42-186.11t163.19-70.81m0,443q64.45,0,102.59-50.39t38.13-135.73q0-85.34-38.13-136T2135.48,324.6q-64.46,0-102.36,50.61t-37.9,136q0,85.35,37.9,135.73t102.36,50.39m0-482c-38.81,0-74.71,7-106.71,20.93-32.37,14-61.22,35.28-85.74,63.1-47.88,54.32-72.16,125.61-72.16,211.9,0,86,24.28,157.13,72.16,211.45,24.52,27.82,53.37,49.05,85.74,63.1,32,13.89,67.9,20.93,106.71,20.93,39.09,0,75.18-7,107.28-20.9,32.52-14.05,61.42-35.31,85.9-63.17,47.7-54.32,71.89-125.44,71.89-211.4,0-86.25-24.19-157.53-71.89-211.85-24.47-27.87-53.37-49.12-85.9-63.18-32.1-13.87-68.19-20.9-107.28-20.9Zm0,443c-30.7,0-53.32-11.07-71.19-34.83-20-26.53-30.07-64.3-30.07-112.29s10.13-85.89,30.12-112.58c17.88-23.87,40.48-35,71.14-35s53.41,11.15,71.44,35.08c20.09,26.67,30.28,64.52,30.28,112.49S2227,596.85,2207,623.36c-18,23.82-40.75,34.92-71.49,34.92Z"/><path class="a" d="M2652.51,787.14c-72.72,0-132.54-26-177.82-77.42-44.65-50.65-67.29-117.46-67.29-198.55,0-81.4,22.64-148.35,67.29-199,45.27-51.37,105.1-77.42,177.82-77.42,73.32,0,133.39,26.06,178.52,77.45,44.48,50.66,67,117.6,67,199,0,81.08-22.55,147.87-67,198.53C2785.9,761.08,2725.83,787.14,2652.51,787.14Zm0-443c-36.81,0-65.19,14-86.75,42.8-22.57,30.14-34,71.95-34,124.27s11.43,94,34,124c21.57,28.67,50,42.61,86.78,42.61s65.32-14,87-42.65c22.68-30,34.18-71.68,34.18-124s-11.51-94.09-34.21-124.22C2717.8,358.11,2689.34,344.1,2652.51,344.1Z"/><path d="M2652.51,254.24q101.68,0,163.87,70.81t62.19,186.11q0,114.85-62.19,185.66t-163.87,70.81q-100.77,0-163.19-70.81t-62.42-185.66q0-115.3,62.42-186.11t163.19-70.81m0,443q64.45,0,102.59-50.39t38.13-135.73q0-85.34-38.13-136T2652.51,324.6q-64.46,0-102.36,50.61t-37.9,136q0,85.35,37.9,135.73t102.36,50.39m0-482c-38.81,0-74.71,7-106.71,20.93-32.37,14-61.22,35.28-85.74,63.1-47.88,54.32-72.16,125.61-72.16,211.9,0,86,24.28,157.13,72.16,211.45,24.52,27.82,53.37,49.05,85.74,63.1,32,13.89,67.9,20.93,106.71,20.93,39.09,0,75.18-7,107.28-20.9,32.52-14.05,61.42-35.31,85.9-63.17,47.7-54.32,71.89-125.44,71.89-211.4,0-86.25-24.19-157.53-71.89-211.85-24.48-27.87-53.38-49.12-85.9-63.18-32.1-13.87-68.19-20.9-107.28-20.9Zm0,443c-30.7,0-53.32-11.07-71.19-34.83-20-26.52-30.07-64.3-30.07-112.28s10.13-85.89,30.12-112.58c17.88-23.87,40.48-35,71.15-35s53.41,11.15,71.44,35.08c20.09,26.67,30.28,64.52,30.28,112.48s-10.17,85.69-30.23,112.19c-18,23.82-40.75,34.92-71.49,34.92Z"/><polygon class="a" points="3259.2 773.97 3115.28 538.77 3074.65 578.4 3074.65 773.97 2953.94 773.97 2953.94 67.69 3074.65 67.69 3074.65 425.15 3252.23 249.26 3412.21 249.26 3204.56 451.74 3412.31 773.97 3259.2 773.97"/><path d="M3055.15,87.19V471.91l205.1-203.15h104L3179.53,448.9l197,305.57H3270.13l-151-246.72-64,62.42v184.3h-81.71V87.19h81.71m39-39H2934.44V793.47h159.71V586.62l17.25-16.82,125.46,205,11.41,18.64h199.81l-38.77-60.13L3229.59,454.57l161.92-157.88,68.64-66.92H3244.21l-11.4,11.29L3094.15,378.39V48.19Z"/><rect class="a" x="3441.02" y="67.69" width="129.33" height="706.29"/><path d="M3550.85,87.19V754.47h-90.33V87.19h90.33m39-39H3421.52V793.47h168.33V48.19Z"/><path class="a" d="M3812.32,779.88c-41.17,0-71.4-10-89.84-29.81s-27.25-50.58-27.25-94.55V355H3628V249.26h67.18V113.08h120.71V249.26h76.72V355h-76.72V655.52c0,4.73,1.36,7.49,5,10.17,5.16,3.8,13,5.73,23.16,5.73h48.55v99.36l-16.57,2.52C3847,777.72,3826.12,779.88,3812.32,779.88Z"/><path d="M3796.43,132.58V268.76h76.72v66.73h-76.72v320q0,16.34,12.94,25.87t34.73,9.53h29.05V754q-41.77,6.35-60.83,6.36-53.57,0-75.58-23.6t-22-81.25v-320h-67.18V268.76h67.18V132.58h81.71m39-39H3675.72V229.76h-67.18V374.49h67.18v281c0,49.14,10.63,84.43,32.5,107.86,12,12.83,27.71,22.36,46.79,28.32,16.53,5.16,35.28,7.67,57.3,7.67,14.79,0,36.61-2.22,66.69-6.8l33.14-5V651.92h-68.05a37.17,37.17,0,0,1-8.66-.84V374.49h76.72V229.76h-76.72V93.58Z"/><path class="a" d="M3956.69,774V641.46h130.69V774Zm23.81-158.42L3957.59,294V66.33h129.79V294l-22.9,321.58Z"/><path d="M4067.88,85.83V293.28L4046.32,596h-47.66l-21.56-302.77V85.83h90.79m0,575.14v93.51h-91.69V661h91.69m39-614.14H3938.09V294.66l.1,1.38,21.56,302.77L3961.4,622h-24.22V793.47h169.69V622h-23.31l1.65-23.14L4106.78,296l.1-1.38V46.83Z"/></svg>